<?xml version="1.0" encoding="UTF-8" standalone="no"?><!DOCTYPE svg PUBLIC "-//W3C//DTD SVG 1.1//EN" "http://www.w3.org/Graphics/SVG/1.1/DTD/svg11.dtd"><svg width="100%" height="100%" viewBox="0 0 2250 2250" version="1.1" xmlns="http://www.w3.org/2000/svg" xmlns:xlink="http://www.w3.org/1999/xlink" xml:space="preserve" xmlns:serif="http://www.serif.com/" style="fill-rule:evenodd;clip-rule:evenodd;stroke-linejoin:round;stroke-miterlimit:2;"><path d="M2000,425c0,-96.585 -78.415,-175 -175,-175l-1400,0c-96.585,0 -175,78.415 -175,175l0,1400c0,96.585 78.415,175 175,175l1400,0c96.585,0 175,-78.415 175,-175l0,-1400Z" style="fill:#fff;"/><clipPath id="_clip1"><path d="M2000,425c0,-96.585 -78.415,-175 -175,-175l-1400,0c-96.585,0 -175,78.415 -175,175l0,1400c0,96.585 78.415,175 175,175l1400,0c96.585,0 175,-78.415 175,-175l0,-1400Z"/></clipPath><g clip-path="url(#_clip1)"><g><g><path d="M1500,906.25c-0,-17.247 -14.003,-31.25 -31.25,-31.25l-687.5,0c-17.247,0 -31.25,14.003 -31.25,31.25l0,62.5c0,17.247 14.003,31.25 31.25,31.25l687.5,0c17.247,0 31.25,-14.003 31.25,-31.25l-0,-62.5Z" style="fill:#d6606b;"/><path d="M1291.67,1093.75c-0,-17.247 -14.003,-31.25 -31.25,-31.25l-270.834,-0c-17.247,-0 -31.25,14.003 -31.25,31.25l0,62.5c0,17.247 14.003,31.25 31.25,31.25l270.834,-0c17.247,-0 31.25,-14.003 31.25,-31.25l-0,-62.5Z" style="fill:#60d3d6;"/><path d="M916.667,1093.75c-0,-17.247 -14.003,-31.25 -31.25,-31.25l-104.167,-0c-17.247,-0 -31.25,14.003 -31.25,31.25l0,62.5c0,17.247 14.003,31.25 31.25,31.25l104.167,-0c17.247,-0 31.25,-14.003 31.25,-31.25l-0,-62.5Z" style="fill:#ca68e2;"/><path d="M1041.67,1281.25c-0,-17.247 -14.003,-31.25 -31.25,-31.25l-229.167,0c-17.247,0 -31.25,14.003 -31.25,31.25l0,62.5c0,17.247 14.003,31.25 31.25,31.25l229.167,0c17.247,0 31.25,-14.003 31.25,-31.25l-0,-62.5Z" style="fill:#e1d05d;"/><path d="M1041.67,1281.25c-0,-17.247 -14.003,-31.25 -31.25,-31.25l-229.167,0c-17.247,0 -31.25,14.003 -31.25,31.25l0,62.5c0,17.247 14.003,31.25 31.25,31.25l229.167,0c17.247,0 31.25,-14.003 31.25,-31.25l-0,-62.5Z" style="fill:#e1d05d;"/><path d="M1500,1281.25c0,-17.247 -14.003,-31.25 -31.25,-31.25l-354.167,0c-17.247,0 -31.25,14.003 -31.25,31.25l0,62.5c0,17.247 14.003,31.25 31.25,31.25l354.167,0c17.247,0 31.25,-14.003 31.25,-31.25l0,-62.5Z" style="fill:#d69060;"/><path d="M1500,1093.75c-0,-17.247 -14.003,-31.25 -31.25,-31.25l-104.167,-0c-17.247,-0 -31.25,14.003 -31.25,31.25l0,62.5c0,17.247 14.003,31.25 31.25,31.25l104.167,-0c17.247,-0 31.25,-14.003 31.25,-31.25l-0,-62.5Z" style="fill:#60d699;"/></g><g transform="matrix(1,0,0,0.938657,0,-146.067)"><text x="386.416px" y="1647.62px" style="font-family:'MicrosoftYaHeiUI', 'Microsoft YaHei UI', sans-serif;font-size:1004.27px;fill:#516ddd;">{</text></g><g transform="matrix(-1,0,0,0.944503,7069.23,-132.146)"><text x="5207.51px" y="1622.68px" style="font-family:'MicrosoftYaHeiUI', 'Microsoft YaHei UI', sans-serif;font-size:998.051px;fill:#516ddd;">{</text></g></g></g></svg>
